<?xml version="1.0" encoding="UTF-8" standalone="no"?>
<!DOCTYPE svg PUBLIC "-//W3C//DTD SVG 1.1//EN" "http://www.w3.org/Graphics/SVG/1.1/DTD/svg11.dtd">
<svg width="45px" height="380px" version="1.1" xmlns="http://www.w3.org/2000/svg" xmlns:xlink="http://www.w3.org/1999/xlink" xml:space="preserve" xmlns:serif="http://www.serif.com/" style="fill-rule:evenodd;clip-rule:evenodd;stroke-linejoin:round;stroke-miterlimit:2;">
    <g id="Layer-1" serif:id="Layer 1" transform="matrix(1,0,0,1,-20.7,-469.764)">
        <g id="rect420" transform="matrix(0.520833,0,0,1.08384,20.7,-55.3116)">
            <rect x="0" y="477.638" width="86.4" height="364.252" style="fill:rgb(230,230,230);"/>
        </g>
        <g transform="matrix(1,0,0,1,-17.9541,412.709)">
            <g transform="matrix(12,0,0,12,49.242,118.155)">
                <path d="M0.378,-0.737c0.091,0 0.162,0.024 0.212,0.072c0.05,0.048 0.078,0.102 0.083,0.163l-0.094,0c-0.011,-0.046 -0.033,-0.083 -0.065,-0.11c-0.032,-0.027 -0.077,-0.04 -0.135,-0.04c-0.07,0 -0.127,0.024 -0.171,0.074c-0.043,0.05 -0.065,0.126 -0.065,0.228c0,0.084 0.02,0.152 0.059,0.205c0.039,0.052 0.098,0.078 0.175,0.078c0.072,0 0.127,-0.027 0.164,-0.082c0.02,-0.029 0.035,-0.067 0.044,-0.115l0.095,0c-0.008,0.076 -0.036,0.139 -0.084,0.19c-0.057,0.062 -0.134,0.093 -0.23,0.093c-0.084,0 -0.154,-0.026 -0.21,-0.076c-0.075,-0.067 -0.112,-0.17 -0.112,-0.309c0,-0.106 0.028,-0.193 0.084,-0.26c0.06,-0.074 0.144,-0.111 0.25,-0.111Z" style="fill-rule:nonzero;"/>
            </g>
            <g transform="matrix(12,0,0,12,57.908,118.155)">
                <path d="M0.076,-0.717l0.097,0l0,0.632l0.364,0l0,0.085l-0.461,0l0,-0.717Z" style="fill-rule:nonzero;"/>
            </g>
            <g transform="matrix(12,0,0,12,64.5818,118.155)">
                <path d="M0.076,-0.717l0.095,0l0,0.349l0.35,-0.349l0.134,0l-0.299,0.289l0.307,0.428l-0.126,0l-0.251,-0.36l-0.115,0.11l0,0.25l-0.095,0l0,-0.717Z" style="fill-rule:nonzero;"/>
            </g>
        </g>
        <g transform="matrix(1,0,0,1,-17.9541,482.709)">
            <g transform="matrix(12,0,0,12,55.9099,118.155)">
                <path d="M0.228,-0.717l0.074,0l-0.228,0.717l-0.074,0l0.228,-0.717Z" style="fill-rule:nonzero;"/>
            </g>
            <g transform="matrix(12,0,0,12,59.2439,118.155)">
                <path d="M0.031,0c0.004,-0.06 0.016,-0.113 0.038,-0.157c0.021,-0.045 0.063,-0.085 0.126,-0.122l0.094,-0.054c0.042,-0.024 0.072,-0.045 0.088,-0.063c0.027,-0.027 0.04,-0.057 0.04,-0.092c0,-0.041 -0.012,-0.073 -0.036,-0.097c-0.025,-0.024 -0.057,-0.036 -0.098,-0.036c-0.06,0 -0.102,0.023 -0.125,0.068c-0.012,0.025 -0.019,0.059 -0.02,0.102l-0.09,0c0.001,-0.061 0.013,-0.111 0.034,-0.149c0.038,-0.068 0.105,-0.102 0.202,-0.102c0.08,0 0.138,0.022 0.175,0.065c0.037,0.044 0.056,0.092 0.056,0.145c0,0.056 -0.02,0.104 -0.059,0.143c-0.023,0.023 -0.064,0.051 -0.123,0.084l-0.067,0.037c-0.032,0.018 -0.057,0.035 -0.075,0.051c-0.033,0.028 -0.053,0.059 -0.062,0.094l0.382,0l0,0.083l-0.48,0Z" style="fill-rule:nonzero;"/>
            </g>
        </g>
        <g transform="matrix(1,0,0,1,-17.9541,534.709)">
            <g transform="matrix(12,0,0,12,55.9099,118.155)">
                <path d="M0.228,-0.717l0.074,0l-0.228,0.717l-0.074,0l0.228,-0.717Z" style="fill-rule:nonzero;"/>
            </g>
            <g transform="matrix(12,0,0,12,59.2439,118.155)">
                <path d="M0.331,-0.248l0,-0.316l-0.225,0.316l0.225,0Zm0.001,0.248l0,-0.171l-0.307,0l0,-0.086l0.321,-0.444l0.074,0l0,0.453l0.103,0l0,0.077l-0.103,0l0,0.171l-0.088,0Z" style="fill-rule:nonzero;"/>
            </g>
        </g>
        <g transform="matrix(1,0,0,1,-17.9541,583.709)">
            <g transform="matrix(12,0,0,12,55.9099,118.155)">
                <path d="M0.228,-0.717l0.074,0l-0.228,0.717l-0.074,0l0.228,-0.717Z" style="fill-rule:nonzero;"/>
            </g>
            <g transform="matrix(12,0,0,12,59.2439,118.155)">
                <path d="M0.272,-0.406c0.039,0 0.069,-0.011 0.091,-0.033c0.022,-0.021 0.033,-0.047 0.033,-0.077c0,-0.026 -0.011,-0.05 -0.032,-0.072c-0.021,-0.022 -0.052,-0.033 -0.095,-0.033c-0.042,0 -0.073,0.011 -0.092,0.033c-0.019,0.022 -0.028,0.047 -0.028,0.077c0,0.033 0.012,0.058 0.037,0.077c0.024,0.018 0.053,0.028 0.086,0.028Zm0.005,0.346c0.041,0 0.075,-0.011 0.102,-0.033c0.027,-0.022 0.04,-0.055 0.04,-0.098c0,-0.046 -0.014,-0.08 -0.042,-0.103c-0.027,-0.024 -0.063,-0.036 -0.106,-0.036c-0.042,0 -0.076,0.012 -0.103,0.036c-0.026,0.024 -0.04,0.057 -0.04,0.1c0,0.036 0.013,0.068 0.037,0.094c0.024,0.027 0.062,0.04 0.112,0.04Zm-0.125,-0.313c-0.024,-0.01 -0.043,-0.022 -0.057,-0.036c-0.026,-0.026 -0.038,-0.06 -0.038,-0.102c0,-0.052 0.019,-0.097 0.056,-0.134c0.038,-0.037 0.092,-0.056 0.161,-0.056c0.067,0 0.12,0.017 0.158,0.053c0.038,0.035 0.057,0.076 0.057,0.124c0,0.043 -0.011,0.079 -0.033,0.106c-0.013,0.015 -0.032,0.03 -0.058,0.044c0.029,0.014 0.052,0.029 0.068,0.046c0.031,0.033 0.047,0.075 0.047,0.127c0,0.062 -0.021,0.114 -0.062,0.157c-0.042,0.043 -0.1,0.064 -0.176,0.064c-0.068,0 -0.125,-0.018 -0.172,-0.055c-0.047,-0.037 -0.071,-0.091 -0.071,-0.161c0,-0.042 0.01,-0.077 0.03,-0.107c0.021,-0.031 0.051,-0.054 0.09,-0.07Z" style="fill-rule:nonzero;"/>
            </g>
        </g>
        <g transform="matrix(1,0,0,1,-17.9541,633.709)">
            <g transform="matrix(12,0,0,12,52.573,118.155)">
                <path d="M0.228,-0.717l0.074,0l-0.228,0.717l-0.074,0l0.228,-0.717Z" style="fill-rule:nonzero;"/>
            </g>
            <g transform="matrix(12,0,0,12,55.907,118.155)">
                <path d="M0.096,-0.495l0,-0.068c0.063,-0.006 0.107,-0.016 0.133,-0.031c0.025,-0.014 0.043,-0.048 0.056,-0.102l0.069,0l0,0.696l-0.094,0l0,-0.495l-0.164,0Z" style="fill-rule:nonzero;"/>
            </g>
            <g transform="matrix(12,0,0,12,62.5808,118.155)">
                <path d="M0.292,-0.702c0.079,0 0.133,0.02 0.164,0.061c0.031,0.04 0.046,0.082 0.046,0.125l-0.087,0c-0.005,-0.028 -0.013,-0.049 -0.025,-0.065c-0.021,-0.029 -0.053,-0.044 -0.096,-0.044c-0.049,0 -0.088,0.023 -0.117,0.068c-0.029,0.046 -0.045,0.111 -0.049,0.195c0.021,-0.029 0.046,-0.052 0.077,-0.066c0.028,-0.013 0.059,-0.02 0.093,-0.02c0.059,0 0.11,0.019 0.154,0.056c0.043,0.038 0.065,0.094 0.065,0.168c0,0.063 -0.021,0.12 -0.062,0.169c-0.041,0.049 -0.1,0.073 -0.177,0.073c-0.065,0 -0.122,-0.025 -0.169,-0.074c-0.048,-0.05 -0.071,-0.134 -0.071,-0.251c0,-0.087 0.01,-0.161 0.031,-0.221c0.041,-0.116 0.115,-0.174 0.223,-0.174Zm-0.006,0.642c0.046,0 0.081,-0.016 0.104,-0.047c0.023,-0.031 0.034,-0.067 0.034,-0.11c0,-0.036 -0.01,-0.07 -0.03,-0.102c-0.021,-0.032 -0.058,-0.049 -0.112,-0.049c-0.038,0 -0.071,0.013 -0.1,0.038c-0.028,0.025 -0.042,0.063 -0.042,0.113c0,0.044 0.013,0.082 0.038,0.112c0.026,0.03 0.062,0.045 0.108,0.045Z" style="fill-rule:nonzero;"/>
            </g>
        </g>
    </g>
</svg>
